<?xml version="1.0" standalone="no"?>
<!DOCTYPE svg PUBLIC "-//W3C//DTD SVG 20010904//EN"
 "http://www.w3.org/TR/2001/REC-SVG-20010904/DTD/svg10.dtd">
<svg version="1.0" xmlns="http://www.w3.org/2000/svg"
 width="74.000000pt" height="74.000000pt" viewBox="0 0 74.000000 74.000000"
 preserveAspectRatio="xMidYMid meet">

<g transform="translate(0.000000,74.000000) scale(0.100000,-0.100000)"
fill="#000000" stroke="none">
<path d="M0 370 l0 -370 370 0 370 0 0 370 0 370 -370 0 -370 0 0 -370z m335
45 c27 -26 32 -60 14 -98 -14 -32 -49 -47 -104 -47 l-45 0 0 85 0 85 55 0 c46
0 60 -4 80 -25z m176 15 c24 -13 25 -46 2 -59 -17 -9 -17 -10 0 -16 24 -10 23
-61 -2 -75 -11 -5 -42 -10 -70 -10 l-51 0 0 85 0 85 51 0 c28 0 59 -5 70 -10z"/>
<path d="M250 355 c0 -46 13 -58 38 -33 17 17 15 65 -4 72 -29 11 -34 6 -34
-39z"/>
<path d="M440 390 c0 -11 7 -20 15 -20 8 0 15 9 15 20 0 11 -7 20 -15 20 -8 0
-15 -9 -15 -20z"/>
<path d="M440 320 c0 -15 5 -20 18 -18 9 2 17 10 17 18 0 8 -8 16 -17 18 -13
2 -18 -3 -18 -18z"/>
</g>
</svg>
